<?xml version="1.0" standalone="no"?>
<!DOCTYPE svg PUBLIC "-//W3C//DTD SVG 20010904//EN"
 "http://www.w3.org/TR/2001/REC-SVG-20010904/DTD/svg10.dtd">
<svg version="1.0" xmlns="http://www.w3.org/2000/svg"
 width="640.000000pt" height="640.000000pt" viewBox="0 0 640.000000 640.000000"
 preserveAspectRatio="xMidYMid meet">

<g transform="translate(0.000000,640.000000) scale(0.100000,-0.100000)"
fill="#000000" stroke="none">
<path d="M3080 6343 c-19 -2 -84 -15 -145 -28 -340 -74 -603 -220 -841 -467
-368 -383 -511 -952 -353 -1406 57 -161 173 -362 303 -526 52 -65 73 -102 64
-112 -3 -2 -38 7 -79 21 -143 49 -262 68 -424 69 -212 0 -399 -42 -620 -141
-335 -150 -582 -369 -723 -643 -108 -208 -166 -426 -179 -675 -40 -793 518
-1462 1318 -1579 408 -60 831 57 1161 323 87 70 146 139 224 262 31 49 62 89
69 89 6 0 20 -9 31 -21 46 -51 5 -221 -95 -394 -61 -106 -196 -240 -331 -331
-58 -39 -195 -124 -304 -188 -230 -136 -334 -210 -365 -259 -28 -45 -27 -69 5
-107 75 -88 309 -145 709 -172 250 -16 1118 -16 1380 0 472 30 745 112 745
224 0 72 -68 126 -415 333 -324 193 -434 277 -536 405 -75 93 -142 233 -175
359 -14 58 -14 63 5 106 32 71 44 64 126 -70 125 -205 395 -400 689 -499 548
-184 1185 -21 1591 405 390 410 512 1013 320 1579 -120 356 -359 622 -725 809
-393 201 -771 240 -1129 117 -41 -14 -79 -26 -83 -26 -17 0 4 44 43 90 74 89
188 262 243 369 111 217 152 395 142 621 -29 699 -540 1284 -1256 1436 -113
24 -312 38 -390 27z m294 -182 c9 -13 -16 -20 -50 -13 l-29 6 30 7 c44 10 43
10 49 0z m-380 -20 c3 -5 -8 -14 -24 -20 -18 -6 -30 -6 -30 0 0 5 9 9 20 9 11
0 20 5 20 10 0 12 7 13 14 1z"/>
</g>
</svg>
