<?xml version="1.0" standalone="no"?>
<!DOCTYPE svg PUBLIC "-//W3C//DTD SVG 20010904//EN"
 "http://www.w3.org/TR/2001/REC-SVG-20010904/DTD/svg10.dtd">
<svg version="1.0" xmlns="http://www.w3.org/2000/svg"
 width="259.000000pt" height="194.000000pt" viewBox="0 0 259.000000 194.000000"
 preserveAspectRatio="xMidYMid meet">

<g transform="translate(0.000000,194.000000) scale(0.100000,-0.100000)"
fill="#FF0000" stroke="none">
<path d="M1208 1567 c-68 -109 -232 -347 -352 -513 l-44 -60 100 -135 c107
-143 268 -380 333 -492 21 -37 42 -67 45 -67 3 0 29 41 59 91 107 184 286 443
387 563 l33 38 -89 118 c-103 135 -275 390 -340 502 -25 43 -47 78 -50 78 -3
0 -39 -55 -82 -123z"/>
</g>
</svg>
