<?xml version="1.0" standalone="no"?>
<!DOCTYPE svg PUBLIC "-//W3C//DTD SVG 20010904//EN"
 "http://www.w3.org/TR/2001/REC-SVG-20010904/DTD/svg10.dtd">
<svg version="1.0" xmlns="http://www.w3.org/2000/svg"
 width="215.000000pt" height="235.000000pt" viewBox="0 0 215.000000 235.000000"
 preserveAspectRatio="xMidYMid meet">

<g transform="translate(0.000000,235.000000) scale(0.100000,-0.100000)"
fill="#FF0000" stroke="none">
<path d="M453 2106 c-129 -31 -240 -120 -295 -235 -30 -61 -32 -74 -33 -171 0
-114 13 -164 68 -275 51 -103 73 -132 393 -526 249 -307 367 -497 434 -702 12
-37 26 -67 32 -65 5 2 26 47 47 99 89 227 200 392 511 764 164 195 221 274
278 384 101 191 119 356 55 492 -85 182 -302 282 -515 238 -137 -29 -272 -133
-339 -263 -19 -36 -36 -66 -39 -66 -3 0 -20 30 -39 66 -105 204 -340 313 -558
260z"/>
</g>
</svg>
