<svg width="30" height="30" viewBox="0 0 30 30" fill="none" xmlns="http://www.w3.org/2000/svg">
<g clip-path="url(#clip0_201_71)">
<path d="M15 0C6.72938 0 0 6.71218 0 14.9617C0 22.968 6.285 29.525 14.3081 29.8897L16.7231 30L11.6175 24.9074C11.0869 24.3782 10.7944 23.6731 10.7944 22.9231C10.7944 22.1732 11.0869 21.47 11.6175 20.9388C12.6788 19.8803 14.5331 19.8803 15.5944 20.9388L22.5675 27.8941L23.205 27.4771C27.4613 24.698 30 20.0187 30 14.9617C30 6.71218 23.2706 0 15 0ZM22.8 25.4816L16.9219 19.6185C15.1537 17.853 12.0619 17.853 10.2937 19.6185C9.40875 20.5012 8.92125 21.6757 8.92125 22.925C8.92125 24.1743 9.40875 25.3488 10.2937 26.2315L11.6831 27.6174C6.00937 26.153 1.875 21.0342 1.875 14.9617C1.875 7.74266 7.7625 1.87021 15 1.87021C22.2375 1.87021 28.125 7.74266 28.125 14.9617C28.125 19.1322 26.1488 23.0129 22.8 25.4816ZM20.625 11.2212C18.5569 11.2212 16.875 12.8988 16.875 14.9617C16.875 17.0245 18.5569 18.7021 20.625 18.7021C22.6931 18.7021 24.375 17.0245 24.375 14.9617C24.375 12.8988 22.6931 11.2212 20.625 11.2212ZM20.625 16.8319C19.5919 16.8319 18.75 15.9921 18.75 14.9617C18.75 13.9312 19.5919 13.0915 20.625 13.0915C21.6581 13.0915 22.5 13.9312 22.5 14.9617C22.5 15.9921 21.6581 16.8319 20.625 16.8319ZM15 10.2861C13.4475 10.2861 12.1875 9.03123 12.1875 7.48083C12.1875 5.93043 13.4475 4.67552 15 4.67552C16.5544 4.67552 17.8125 5.93043 17.8125 7.48083C17.8125 9.03123 16.5544 10.2861 15 10.2861ZM9.84375 10.0823C9.84375 11.1146 9.00375 11.9525 7.96875 11.9525C6.93375 11.9525 6.09375 11.1146 6.09375 10.0823C6.09375 9.04993 6.93375 8.21208 7.96875 8.21208C9.00375 8.21208 9.84375 9.04806 9.84375 10.0823Z" fill="#181818"/>
</g>
<defs>
<clipPath id="clip0_201_71">
<rect width="30" height="30" fill="white"/>
</clipPath>
</defs>
</svg>
