<svg width="31" height="30" viewBox="0 0 31 30" fill="none" xmlns="http://www.w3.org/2000/svg">
<g clip-path="url(#clip0_203_129)">
<path d="M30.0797 17.6598L14.8613 2.517L14.6314 2.74268C13.485 1.62105 11.968 1.0017 10.3531 1C10.3531 1 10.3531 1 10.3514 1C8.72455 1 7.19208 1.62784 6.04058 2.76644C4.88736 3.90504 4.2524 5.41864 4.2524 7.03236C4.2524 8.62911 4.8805 10.1291 6.01484 11.2627L2.22569 15.011C1.70572 15.5269 1.41913 16.209 1.41913 16.9336C1.41913 17.6615 1.704 18.342 2.22055 18.851L10.4767 27.0961C10.995 27.6086 11.6848 27.8919 12.4176 27.8919C13.1538 27.8919 13.8437 27.6069 14.3619 27.0927L23.9 17.6615L30.0797 17.6598ZM5.9685 7.03066C5.9685 5.8734 6.42498 4.78571 7.25386 3.96612C8.08273 3.14823 9.18104 2.69687 10.3514 2.69687C10.3531 2.69687 10.3531 2.69687 10.3531 2.69687C11.5098 2.69687 12.5944 3.14145 13.4181 3.94237L7.22983 10.063C6.41812 9.24677 5.9685 8.17435 5.9685 7.03066ZM13.1452 25.8947C12.9513 26.0865 12.6905 26.1951 12.4159 26.1951C12.1413 26.1951 11.8822 26.0899 11.6917 25.8998L5.45196 19.6655H19.445L13.1452 25.8947ZM21.1611 17.9687H3.7513L3.43726 17.6531C3.24162 17.4613 3.13523 17.2068 3.13523 16.9353C3.13523 16.6621 3.24334 16.4059 3.43897 16.2107L14.8579 4.91976L25.9576 15.9647L23.1878 15.9664L21.1611 17.9687ZM28.3413 21.2928L27.6428 20.2679L26.9255 21.2826C26.378 22.0581 24.5864 24.695 24.5864 26.0305C24.5864 27.668 25.9336 29 27.5896 29C29.2456 29 30.5928 27.6663 30.5928 26.0288C30.5928 24.7018 28.8698 22.0683 28.3413 21.2928ZM27.5896 27.3014C26.8809 27.3014 26.3025 26.7296 26.3025 26.0288C26.3025 25.6215 26.9015 24.4677 27.6171 23.3291C28.3035 24.466 28.8767 25.6181 28.8767 26.0288C28.8767 26.7296 28.2984 27.3014 27.5896 27.3014Z" fill="#181818"/>
</g>
<defs>
<clipPath id="clip0_203_129">
<rect width="30.1796" height="30" fill="white" transform="translate(0.413147)"/>
</clipPath>
</defs>
</svg>
