<svg width="30" height="30" viewBox="0 0 30 30" fill="none" xmlns="http://www.w3.org/2000/svg">
<g clip-path="url(#clip0_203_84)">
<path d="M28.125 3.52941V0H3.75V3.52941H2.7825C1.24875 3.52941 0 4.72059 0 6.18529V11.4618C0 12.9265 1.24875 14.1176 2.7825 14.1176H14.0775C14.5931 14.1176 15.015 14.5147 15.015 15V17.6471H13.125V30H18.75V17.6471H16.89V15C16.89 13.5406 15.6281 12.3529 14.0775 12.3529H2.7825C2.28375 12.3529 1.875 11.9524 1.875 11.4618V6.18529C1.875 5.69471 2.28375 5.29412 2.7825 5.29412H3.75V10.5882H28.125V5.29412H30V3.52941H28.125ZM16.875 28.2353H15V19.4118H16.875V28.2353ZM26.25 8.82353H5.625V1.76471H26.25V8.82353Z" fill="#181818"/>
</g>
<defs>
<clipPath id="clip0_203_84">
<rect width="30" height="30" fill="white"/>
</clipPath>
</defs>
</svg>
