<svg width="271" height="271" viewBox="0 0 271 271" fill="none" xmlns="http://www.w3.org/2000/svg">
<rect x="0.5" y="0.5" width="270" height="270" fill="#18B5DC"/>
<rect width="41.9999" height="42" transform="translate(67.5 114.5)" fill="#5DCBE6"/>
<path d="M96.4441 131.426C96.4568 131.604 96.4568 131.782 96.4568 131.959C96.4568 137.378 92.3325 143.622 84.7944 143.622C82.4721 143.622 80.3147 142.949 78.5 141.782C78.83 141.82 79.1472 141.832 79.4898 141.832C81.4061 141.832 83.17 141.185 84.5787 140.081C82.7766 140.043 81.2665 138.863 80.7462 137.239C81 137.277 81.2538 137.302 81.5203 137.302C81.8883 137.302 82.2564 137.251 82.599 137.162C80.7208 136.782 79.3121 135.132 79.3121 133.14V133.089C79.8578 133.393 80.4924 133.584 81.1649 133.609C80.0609 132.873 79.3375 131.617 79.3375 130.195C79.3375 129.434 79.5405 128.736 79.8959 128.127C81.9137 130.614 84.9467 132.239 88.3477 132.416C88.2842 132.112 88.2461 131.794 88.2461 131.477C88.2461 129.218 90.0736 127.378 92.3451 127.378C93.5253 127.378 94.5913 127.873 95.34 128.673C96.2664 128.495 97.1547 128.152 97.9416 127.683C97.637 128.635 96.9898 129.434 96.1395 129.942C96.9644 129.853 97.7639 129.624 98.4999 129.307C97.9416 130.119 97.2436 130.843 96.4441 131.426Z" fill="white"/>
<rect width="42" height="42" transform="translate(113.5 114.5)" fill="#5DCBE6"/>
<path d="M139.154 136.75L139.709 133.13H136.236V130.782C136.236 129.791 136.721 128.826 138.277 128.826H139.856V125.745C139.856 125.745 138.423 125.5 137.053 125.5C134.193 125.5 132.323 127.234 132.323 130.372V133.13H129.144V136.75H132.323V145.5H136.236V136.75H139.154Z" fill="white"/>
<rect width="42.0045" height="42" transform="translate(159.5 114.5)" fill="#5DCBE6"/>
<path d="M180.504 130.372C177.666 130.372 175.377 132.662 175.377 135.5C175.377 138.338 177.666 140.628 180.504 140.628C183.343 140.628 185.632 138.338 185.632 135.5C185.632 132.662 183.343 130.372 180.504 130.372ZM180.504 138.834C178.67 138.834 177.171 137.339 177.171 135.5C177.171 133.661 178.666 132.166 180.504 132.166C182.343 132.166 183.838 133.661 183.838 135.5C183.838 137.339 182.339 138.834 180.504 138.834ZM187.038 130.163C187.038 130.827 186.502 131.359 185.842 131.359C185.177 131.359 184.646 130.823 184.646 130.163C184.646 129.502 185.181 128.966 185.842 128.966C186.502 128.966 187.038 129.502 187.038 130.163ZM190.434 131.376C190.358 129.774 189.992 128.355 188.819 127.186C187.649 126.017 186.23 125.651 184.628 125.57C182.977 125.477 178.028 125.477 176.376 125.57C174.779 125.646 173.359 126.012 172.186 127.181C171.012 128.351 170.651 129.77 170.57 131.372C170.477 133.023 170.477 137.972 170.57 139.624C170.646 141.226 171.012 142.645 172.186 143.814C173.359 144.983 174.774 145.349 176.376 145.43C178.028 145.523 182.977 145.523 184.628 145.43C186.23 145.354 187.649 144.988 188.819 143.814C189.988 142.645 190.354 141.226 190.434 139.624C190.528 137.972 190.528 133.028 190.434 131.376ZM188.301 141.395C187.953 142.27 187.279 142.944 186.4 143.297C185.083 143.819 181.959 143.698 180.504 143.698C179.05 143.698 175.921 143.814 174.609 143.297C173.734 142.948 173.06 142.275 172.708 141.395C172.186 140.079 172.306 136.955 172.306 135.5C172.306 134.045 172.19 130.917 172.708 129.605C173.056 128.73 173.73 128.056 174.609 127.704C175.926 127.181 179.05 127.302 180.504 127.302C181.959 127.302 185.088 127.186 186.4 127.704C187.274 128.052 187.948 128.725 188.301 129.605C188.823 130.921 188.703 134.045 188.703 135.5C188.703 136.955 188.823 140.083 188.301 141.395Z" fill="white"/>
</svg>
